#N canvas 584 95 783 643 10;
#N canvas 128 360 430 243 osc_control 1;
#X obj 97 48 unpackOSC;
#X obj 97 75 pipelist;
#X obj 96 133 outlet;
#X obj 142 133 outlet;
#X obj 98 12 udpreceive 9001;
#X obj 96 101 routeOSC /vh /tv;
#X connect 0 0 1 0;
#X connect 0 1 1 1;
#X connect 1 0 5 0;
#X connect 4 0 0 0;
#X connect 5 0 2 0;
#X connect 5 1 3 0;
#X restore 177 8 pd osc_control;
#X obj 144 504 vh_control;
#X obj 265 504 tv_control;
#X msg 154 335 open;
#X msg 78 353 auto_poll;
#X msg 33 388 stop_poll;
#X msg 155 401 close;
#X obj 32 462 metro 10;
#X obj 33 429 tgl 15 0 empty empty empty 17 7 0 10 -262144 -1 -1 0
1;
#N canvas 0 22 619 413 vh_unpack 1;
#X obj 4 -11 inlet;
#X obj 4 124 list-math int;
#X obj 36 48 bondo 6;
#X obj 4 79 pack 0 0 0 0 0 0;
#X obj 4 148 outlet;
#X obj 231 55 bondo 6;
#X obj 199 86 pack 0 0 0 0 0 0;
#X obj 199 114 outlet;
#X obj 4 102 list-math * 64;
#X obj 5 15 routeOSC /f1 /f2 /f3 /f4 /f5 /f6 /t1 /t2 /t3 /t4 /t5 /t6
;
#X connect 0 0 9 0;
#X connect 1 0 4 0;
#X connect 2 0 3 0;
#X connect 2 1 3 1;
#X connect 2 2 3 2;
#X connect 2 3 3 3;
#X connect 2 4 3 4;
#X connect 2 5 3 5;
#X connect 3 0 8 0;
#X connect 5 0 6 0;
#X connect 5 1 6 1;
#X connect 5 2 6 2;
#X connect 5 3 6 3;
#X connect 5 4 6 4;
#X connect 5 5 6 5;
#X connect 6 0 7 0;
#X connect 8 0 1 0;
#X connect 9 0 2 0;
#X connect 9 1 2 1;
#X connect 9 2 2 2;
#X connect 9 3 2 3;
#X connect 9 4 2 4;
#X connect 9 5 2 5;
#X connect 9 6 5 0;
#X connect 9 7 5 1;
#X connect 9 8 5 2;
#X connect 9 9 5 3;
#X connect 9 10 5 4;
#X connect 9 11 5 5;
#X restore 62 37 pd vh_unpack;
#X msg 348 497 9;
#X msg 387 499 12;
#X msg 422 495 15;
#X msg 457 495 16;
#X msg 493 494 20;
#X msg 526 493 26;
#X msg 560 495 28;
#N canvas 78 102 653 197 vh_seq 1;
#X obj 233 143 outlet;
#X obj 280 143 outlet;
#X obj 329 144 outlet;
#X obj 375 145 outlet;
#X obj 422 144 outlet;
#X obj 468 143 outlet;
#X obj 135 107 vh_motor_seq;
#X obj 324 6 inlet;
#X obj 6 24 inlet;
#X obj 7 59 routeOSC /vh1 /vh2 /vh3 /vh4 /vh5 /vh6;
#X obj 220 107 vh_motor_seq;
#X obj 302 108 vh_motor_seq;
#X obj 384 108 vh_motor_seq;
#X obj 468 109 vh_motor_seq;
#X obj 551 109 vh_motor_seq;
#X connect 6 0 0 0;
#X connect 7 0 6 1;
#X connect 7 0 10 1;
#X connect 7 0 11 1;
#X connect 7 0 12 1;
#X connect 7 0 13 1;
#X connect 7 0 14 1;
#X connect 8 0 9 0;
#X connect 9 0 6 0;
#X connect 9 1 10 0;
#X connect 9 2 11 0;
#X connect 9 3 12 0;
#X connect 9 4 13 0;
#X connect 9 5 14 0;
#X connect 10 0 1 0;
#X connect 11 0 2 0;
#X connect 12 0 3 0;
#X connect 13 0 4 0;
#X connect 14 0 5 0;
#X restore 148 90 pd vh_seq;
#X obj 41 124 vh_control_gui;
#X obj 367 154 tv_sequencer;
#X obj 328 36 tempo_control;
#X connect 0 0 9 0;
#X connect 0 0 17 0;
#X connect 0 1 20 0;
#X connect 0 1 19 0;
#X connect 3 0 1 0;
#X connect 3 0 2 0;
#X connect 4 0 1 0;
#X connect 4 0 2 0;
#X connect 5 0 1 0;
#X connect 5 0 2 0;
#X connect 6 0 1 0;
#X connect 6 0 2 0;
#X connect 7 0 1 0;
#X connect 7 0 2 0;
#X connect 8 0 7 0;
#X connect 9 0 18 0;
#X connect 9 1 18 1;
#X connect 17 0 18 2;
#X connect 17 1 18 3;
#X connect 17 2 18 4;
#X connect 17 3 18 5;
#X connect 17 4 18 6;
#X connect 17 5 18 7;
#X connect 18 0 1 1;
#X connect 19 0 2 1;
#X connect 20 0 19 1;
#X connect 20 0 17 1;
