#N canvas 799 134 356 240 10;
#N canvas 102 363 274 193 osc_control 1;
#X obj 97 48 unpackOSC;
#X obj 97 75 pipelist;
#X obj 73 159 outlet;
#X obj 142 159 outlet;
#X obj 98 12 udpreceive 9001;
#X obj 96 101 routeOSC /vh /tv;
#N canvas 0 22 590 193 vh_pack 1;
#X obj 227 84 bondo 6;
#X obj 173 115 pack 0 0 0 0 0 0 0 0 0;
#X obj 96 -15 inlet;
#X obj 160 142 outlet;
#X obj 5 43 vh_osc_convert;
#X obj 111 43 vh_osc_convert;
#X obj 298 44 vh_osc_convert;
#X obj 203 43 vh_osc_convert;
#X obj 391 44 vh_osc_convert;
#X obj 488 44 vh_osc_convert;
#X obj 97 11 routeOSC /f1 /t1 /f2 /t2 /f3 /t3 /f4 /t4 /f5 /t5 /f6 /t6
;
#X connect 0 0 1 0;
#X connect 0 1 1 2;
#X connect 0 2 1 3;
#X connect 0 3 1 5;
#X connect 0 4 1 7;
#X connect 0 5 1 8;
#X connect 1 0 3 0;
#X connect 2 0 10 0;
#X connect 4 0 0 0;
#X connect 5 0 0 1;
#X connect 6 0 0 3;
#X connect 7 0 0 2;
#X connect 8 0 0 4;
#X connect 9 0 0 5;
#X connect 10 0 4 0;
#X connect 10 1 4 1;
#X connect 10 2 5 0;
#X connect 10 3 5 1;
#X connect 10 4 7 0;
#X connect 10 5 7 1;
#X connect 10 6 6 0;
#X connect 10 7 6 1;
#X connect 10 8 8 0;
#X connect 10 9 8 1;
#X connect 10 10 9 0;
#X connect 10 11 9 1;
#X restore 73 134 pd vh_pack;
#N canvas 207 89 711 600 tv_sequencer 1;
#X obj 98 14 inlet;
#X obj 136 581 outlet;
#X obj 29 102 tv_listbuilder;
#X obj 28 72 routeOSC /1;
#X obj 105 74 routeOSC /1;
#X obj 181 103 list-math * 255;
#X obj 181 129 list-math int;
#X obj 163 190 vsl 15 128 0 255 0 0 empty empty empty 0 -9 0 10 -262144
-1 -1 0 1;
#X obj 182 190 vsl 15 128 0 255 0 0 empty empty empty 0 -9 0 10 -262144
-1 -1 6475 1;
#X obj 201 190 vsl 15 128 0 255 0 0 empty empty empty 0 -9 0 10 -262144
-1 -1 0 1;
#X obj 220 190 vsl 15 128 0 255 0 0 empty empty empty 0 -9 0 10 -262144
-1 -1 11505 1;
#X obj 238 190 vsl 15 128 0 255 0 0 empty empty empty 0 -9 0 10 -262144
-1 -1 0 1;
#X obj 257 190 vsl 15 128 0 255 0 0 empty empty empty 0 -9 0 10 -262144
-1 -1 5628 1;
#X obj 276 190 vsl 15 128 0 255 0 0 empty empty empty 0 -9 0 10 -262144
-1 -1 0 1;
#X obj 295 190 vsl 15 128 0 255 0 0 empty empty empty 0 -9 0 10 -262144
-1 -1 12102 1;
#X obj 315 190 vsl 15 128 0 255 0 0 empty empty empty 0 -9 0 10 -262144
-1 -1 0 1;
#X obj 334 190 vsl 15 128 0 255 0 0 empty empty empty 0 -9 0 10 -262144
-1 -1 6176 1;
#X obj 353 190 vsl 15 128 0 255 0 0 empty empty empty 0 -9 0 10 -262144
-1 -1 0 1;
#X obj 372 190 vsl 15 128 0 255 0 0 empty empty empty 0 -9 0 10 -262144
-1 -1 12252 1;
#X obj 390 190 vsl 15 128 0 255 0 0 empty empty empty 0 -9 0 10 -262144
-1 -1 0 1;
#X obj 409 190 vsl 15 128 0 255 0 0 empty empty empty 0 -9 0 10 -262144
-1 -1 5478 1;
#X obj 428 190 vsl 15 128 0 255 0 0 empty empty empty 0 -9 0 10 -262144
-1 -1 0 1;
#X obj 144 190 vsl 15 128 0 255 0 0 empty empty empty 0 -9 0 10 -262144
-1 -1 11804 1;
#X obj 145 161 unpack 0 0 0 0 0 0 0 0 0 0 0 0 0 0 0 0;
#X obj 144 324 tgl 15 0 empty empty empty 17 7 0 10 -262144 -1 -1 1
1;
#X obj 163 324 tgl 15 0 empty empty empty 17 7 0 10 -262144 -1 -1 0
1;
#X obj 182 324 tgl 15 0 empty empty empty 17 7 0 10 -262144 -1 -1 0
1;
#X obj 201 324 tgl 15 0 empty empty empty 17 7 0 10 -262144 -1 -1 0
1;
#X obj 219 324 tgl 15 0 empty empty empty 17 7 0 10 -262144 -1 -1 1
1;
#X obj 238 324 tgl 15 0 empty empty empty 17 7 0 10 -262144 -1 -1 0
1;
#X obj 257 324 tgl 15 0 empty empty empty 17 7 0 10 -262144 -1 -1 0
1;
#X obj 276 324 tgl 15 0 empty empty empty 17 7 0 10 -262144 -1 -1 0
1;
#X obj 295 324 tgl 15 0 empty empty empty 17 7 0 10 -262144 -1 -1 1
1;
#X obj 314 324 tgl 15 0 empty empty empty 17 7 0 10 -262144 -1 -1 0
1;
#X obj 333 324 tgl 15 0 empty empty empty 17 7 0 10 -262144 -1 -1 0
1;
#X obj 352 324 tgl 15 0 empty empty empty 17 7 0 10 -262144 -1 -1 0
1;
#X obj 371 324 tgl 15 0 empty empty empty 17 7 0 10 -262144 -1 -1 1
1;
#X obj 390 324 tgl 15 0 empty empty empty 17 7 0 10 -262144 -1 -1 0
1;
#X obj 409 324 tgl 15 0 empty empty empty 17 7 0 10 -262144 -1 -1 0
1;
#X obj 428 324 tgl 15 0 empty empty empty 17 7 0 10 -262144 -1 -1 0
1;
#X obj 76 347 unpack 0 0 0 0 0 0 0 0 0 0 0 0 0 0 0 0;
#X obj 48 402 list-mult;
#X obj 114 401 list-mult;
#X obj 452 235 f;
#X obj 489 234 + 1;
#X obj 452 187 tgl 15 0 empty empty empty 17 7 0 10 -262144 -1 -1 0
1;
#X obj 452 257 mod 16;
#X obj 136 554 list-seek;
#X obj 98 39 routeOSC /mt1 /mt2 /mf1 /mf2 /tt /tf;
#X obj 491 190 i;
#X obj 491 86 * 200;
#X obj 491 163 * 1000;
#X obj 452 213 metro 100000;
#X obj 491 136 expr 60 /$f1;
#X obj 491 111 * 4;
#X floatatom 528 112 5 0 0 0 - - -;
#X obj 181 76 tv_listbuilder;
#X connect 0 0 48 0;
#X connect 2 0 40 0;
#X connect 2 0 41 0;
#X connect 2 0 42 1;
#X connect 3 0 2 0;
#X connect 4 0 2 1;
#X connect 5 0 6 0;
#X connect 6 0 23 0;
#X connect 6 0 41 1;
#X connect 6 0 42 0;
#X connect 23 0 22 0;
#X connect 23 1 7 0;
#X connect 23 2 8 0;
#X connect 23 3 9 0;
#X connect 23 4 10 0;
#X connect 23 5 11 0;
#X connect 23 6 12 0;
#X connect 23 7 13 0;
#X connect 23 8 14 0;
#X connect 23 9 15 0;
#X connect 23 10 16 0;
#X connect 23 11 17 0;
#X connect 23 12 18 0;
#X connect 23 13 19 0;
#X connect 23 14 20 0;
#X connect 23 15 21 0;
#X connect 40 0 24 0;
#X connect 40 1 25 0;
#X connect 40 2 26 0;
#X connect 40 3 27 0;
#X connect 40 4 28 0;
#X connect 40 5 29 0;
#X connect 40 6 30 0;
#X connect 40 7 31 0;
#X connect 40 8 32 0;
#X connect 40 9 33 0;
#X connect 40 10 34 0;
#X connect 40 11 35 0;
#X connect 40 12 36 0;
#X connect 40 13 37 0;
#X connect 40 14 38 0;
#X connect 40 15 39 0;
#X connect 41 0 47 1;
#X connect 42 0 47 1;
#X connect 43 0 44 0;
#X connect 43 0 46 0;
#X connect 44 0 43 1;
#X connect 45 0 52 0;
#X connect 46 0 47 0;
#X connect 47 0 1 0;
#X connect 48 0 3 0;
#X connect 48 1 4 0;
#X connect 48 2 56 0;
#X connect 48 3 56 1;
#X connect 48 4 45 0;
#X connect 48 5 50 0;
#X connect 49 0 52 1;
#X connect 50 0 54 0;
#X connect 50 0 55 0;
#X connect 51 0 49 0;
#X connect 52 0 43 0;
#X connect 53 0 51 0;
#X connect 54 0 53 0;
#X connect 56 0 5 0;
#X restore 142 134 pd tv_sequencer;
#X connect 0 0 1 0;
#X connect 0 1 1 1;
#X connect 1 0 5 0;
#X connect 4 0 0 0;
#X connect 5 0 6 0;
#X connect 5 1 7 0;
#X connect 6 0 2 0;
#X connect 7 0 3 0;
#X restore 177 8 pd osc_control;
#X obj 118 174 vh_control;
#X obj 238 173 tv_control;
#X msg 128 5 open;
#X msg 52 23 auto_poll;
#X msg 7 58 stop_poll;
#X msg 130 54 close;
#X obj 6 132 metro 10;
#X obj 7 99 tgl 15 0 empty empty empty 17 7 0 10 -262144 -1 -1 0 1
;
#X connect 0 0 1 1;
#X connect 0 1 2 1;
#X connect 3 0 1 0;
#X connect 3 0 2 0;
#X connect 4 0 1 0;
#X connect 4 0 2 0;
#X connect 5 0 1 0;
#X connect 5 0 2 0;
#X connect 6 0 1 0;
#X connect 6 0 2 0;
#X connect 7 0 1 0;
#X connect 7 0 2 0;
#X connect 8 0 7 0;
