#N canvas 0 22 541 517 10;
#X obj 97 291 f;
#X obj 134 290 + 1;
#X obj 97 243 tgl 15 0 empty empty empty 17 7 0 10 -262144 -1 -1 0
1;
#X obj 97 313 mod 16;
#X obj 135 210 i;
#X obj 136 109 * 200;
#X obj 136 186 * 1000;
#X obj 97 269 metro 100000;
#X obj 136 159 expr 60 /$f1;
#X obj 136 134 * 4;
#X floatatom 173 135 5 0 0 0 - - -;
#X floatatom 136 242 5 0 0 0 - - -;
#X obj 76 362 outlet;
#X obj 97 73 routeOSC /tt /tf;
#X obj 91 30 inlet;
#X connect 0 0 1 0;
#X connect 0 0 3 0;
#X connect 1 0 0 1;
#X connect 2 0 7 0;
#X connect 3 0 12 0;
#X connect 4 0 11 0;
#X connect 5 0 9 0;
#X connect 5 0 10 0;
#X connect 6 0 4 0;
#X connect 7 0 0 0;
#X connect 8 0 6 0;
#X connect 9 0 8 0;
#X connect 11 0 7 1;
#X connect 13 0 2 0;
#X connect 13 1 5 0;
#X connect 14 0 13 0;
#X coords 0 -1 1 1 100 40 1 80 220;
