#N canvas 479 310 450 300 10;
#X msg 243 21 count;
#X floatatom 312 176 5 0 255 0 - - -;
#X msg 243 47 open;
#X obj 156 229 bng 15 250 50 0 empty empty empty 0 -6 0 10 -262144
-1 -1;
#X msg 242 97 close;
#X obj 156 201 np_trancevibe;
#X msg 243 72 open 0;
#X obj 242 124 bng 15 250 50 0 empty empty empty 17 7 0 10 -262144
-1 -1;
#X obj 312 149 inlet;
#X obj 128 155 inlet;
#X msg 242 148 auto_poll;
#X msg 243 174 stop_poll;
#X connect 0 0 5 0;
#X connect 1 0 5 1;
#X connect 2 0 5 0;
#X connect 4 0 5 0;
#X connect 5 0 3 0;
#X connect 6 0 5 0;
#X connect 7 0 5 0;
#X connect 8 0 1 0;
#X connect 9 0 5 0;
#X connect 10 0 5 0;
#X connect 11 0 5 0;
