#N canvas 901 209 450 300 10;
#X obj 31 106 inlet;
#X obj 234 107 inlet;
#X obj 31 131 routeOSC /1 /2 /3 /4 /5 /6 /7 /8;
#X obj 234 132 routeOSC /1 /2 /3 /4 /5 /6 /7 /8;
#X obj 122 212 pack 0 0 0 0 0 0 0 0 0 0 0 0 0 0 0 0;
#X obj 199 175 bondo 16;
#X obj 120 237 outlet;
#X connect 0 0 2 0;
#X connect 1 0 3 0;
#X connect 2 0 5 0;
#X connect 2 1 5 1;
#X connect 2 2 5 2;
#X connect 2 3 5 3;
#X connect 2 4 5 4;
#X connect 2 5 5 5;
#X connect 2 6 5 6;
#X connect 2 7 5 7;
#X connect 3 0 5 8;
#X connect 3 1 5 9;
#X connect 3 2 5 10;
#X connect 3 3 5 11;
#X connect 3 4 5 12;
#X connect 3 5 5 13;
#X connect 3 6 5 14;
#X connect 3 7 5 15;
#X connect 4 0 6 0;
#X connect 5 0 4 0;
#X connect 5 1 4 1;
#X connect 5 2 4 2;
#X connect 5 3 4 3;
#X connect 5 4 4 4;
#X connect 5 5 4 5;
#X connect 5 6 4 6;
#X connect 5 7 4 7;
#X connect 5 8 4 8;
#X connect 5 9 4 9;
#X connect 5 10 4 10;
#X connect 5 11 4 11;
#X connect 5 12 4 12;
#X connect 5 13 4 13;
#X connect 5 14 4 14;
#X connect 5 15 4 15;
