#N canvas 0 22 721 622 10;
#X obj 108 24 inlet;
#X obj 146 591 outlet;
#X obj 39 112 tv_listbuilder;
#X obj 38 82 routeOSC /1;
#X obj 115 84 routeOSC /1;
#X obj 191 113 list-math * 255;
#X obj 191 139 list-math int;
#X obj 173 233 vsl 15 128 0 255 0 0 empty empty empty 0 -9 0 10 -262144
-1 -1 0 1;
#X obj 192 233 vsl 15 128 0 255 0 0 empty empty empty 0 -9 0 10 -262144
-1 -1 0 1;
#X obj 211 233 vsl 15 128 0 255 0 0 empty empty empty 0 -9 0 10 -262144
-1 -1 0 1;
#X obj 230 233 vsl 15 128 0 255 0 0 empty empty empty 0 -9 0 10 -262144
-1 -1 0 1;
#X obj 248 233 vsl 15 128 0 255 0 0 empty empty empty 0 -9 0 10 -262144
-1 -1 0 1;
#X obj 267 233 vsl 15 128 0 255 0 0 empty empty empty 0 -9 0 10 -262144
-1 -1 0 1;
#X obj 286 233 vsl 15 128 0 255 0 0 empty empty empty 0 -9 0 10 -262144
-1 -1 0 1;
#X obj 305 233 vsl 15 128 0 255 0 0 empty empty empty 0 -9 0 10 -262144
-1 -1 0 1;
#X obj 325 233 vsl 15 128 0 255 0 0 empty empty empty 0 -9 0 10 -262144
-1 -1 0 1;
#X obj 344 233 vsl 15 128 0 255 0 0 empty empty empty 0 -9 0 10 -262144
-1 -1 0 1;
#X obj 363 233 vsl 15 128 0 255 0 0 empty empty empty 0 -9 0 10 -262144
-1 -1 0 1;
#X obj 382 233 vsl 15 128 0 255 0 0 empty empty empty 0 -9 0 10 -262144
-1 -1 0 1;
#X obj 400 233 vsl 15 128 0 255 0 0 empty empty empty 0 -9 0 10 -262144
-1 -1 0 1;
#X obj 419 233 vsl 15 128 0 255 0 0 empty empty empty 0 -9 0 10 -262144
-1 -1 0 1;
#X obj 438 233 vsl 15 128 0 255 0 0 empty empty empty 0 -9 0 10 -262144
-1 -1 0 1;
#X obj 154 233 vsl 15 128 0 255 0 0 empty empty empty 0 -9 0 10 -262144
-1 -1 0 1;
#X obj 155 171 unpack 0 0 0 0 0 0 0 0 0 0 0 0 0 0 0 0;
#X obj 154 367 tgl 15 0 empty empty empty 17 7 0 10 -262144 -1 -1 0
1;
#X obj 173 367 tgl 15 0 empty empty empty 17 7 0 10 -262144 -1 -1 0
1;
#X obj 192 367 tgl 15 0 empty empty empty 17 7 0 10 -262144 -1 -1 0
1;
#X obj 211 367 tgl 15 0 empty empty empty 17 7 0 10 -262144 -1 -1 0
1;
#X obj 229 367 tgl 15 0 empty empty empty 17 7 0 10 -262144 -1 -1 0
1;
#X obj 248 367 tgl 15 0 empty empty empty 17 7 0 10 -262144 -1 -1 0
1;
#X obj 267 367 tgl 15 0 empty empty empty 17 7 0 10 -262144 -1 -1 0
1;
#X obj 286 367 tgl 15 0 empty empty empty 17 7 0 10 -262144 -1 -1 0
1;
#X obj 305 367 tgl 15 0 empty empty empty 17 7 0 10 -262144 -1 -1 0
1;
#X obj 324 367 tgl 15 0 empty empty empty 17 7 0 10 -262144 -1 -1 0
1;
#X obj 343 367 tgl 15 0 empty empty empty 17 7 0 10 -262144 -1 -1 0
1;
#X obj 362 367 tgl 15 0 empty empty empty 17 7 0 10 -262144 -1 -1 0
1;
#X obj 381 367 tgl 15 0 empty empty empty 17 7 0 10 -262144 -1 -1 0
1;
#X obj 400 367 tgl 15 0 empty empty empty 17 7 0 10 -262144 -1 -1 0
1;
#X obj 419 367 tgl 15 0 empty empty empty 17 7 0 10 -262144 -1 -1 0
1;
#X obj 438 367 tgl 15 0 empty empty empty 17 7 0 10 -262144 -1 -1 0
1;
#X obj 86 390 unpack 0 0 0 0 0 0 0 0 0 0 0 0 0 0 0 0;
#X obj 58 445 list-mult;
#X obj 124 444 list-mult;
#X obj 146 564 list-seek;
#X obj 191 86 tv_listbuilder;
#X obj 242 516 inlet;
#X obj 108 50 routeOSC /mt1 /mt2 /mf1 /mf2;
#X connect 0 0 46 0;
#X connect 2 0 40 0;
#X connect 2 0 41 0;
#X connect 2 0 42 1;
#X connect 3 0 2 0;
#X connect 4 0 2 1;
#X connect 5 0 6 0;
#X connect 6 0 23 0;
#X connect 6 0 41 1;
#X connect 6 0 42 0;
#X connect 23 0 22 0;
#X connect 23 1 7 0;
#X connect 23 2 8 0;
#X connect 23 3 9 0;
#X connect 23 4 10 0;
#X connect 23 5 11 0;
#X connect 23 6 12 0;
#X connect 23 7 13 0;
#X connect 23 8 14 0;
#X connect 23 9 15 0;
#X connect 23 10 16 0;
#X connect 23 11 17 0;
#X connect 23 12 18 0;
#X connect 23 13 19 0;
#X connect 23 14 20 0;
#X connect 23 15 21 0;
#X connect 40 0 24 0;
#X connect 40 1 25 0;
#X connect 40 2 26 0;
#X connect 40 3 27 0;
#X connect 40 4 28 0;
#X connect 40 5 29 0;
#X connect 40 6 30 0;
#X connect 40 7 31 0;
#X connect 40 8 32 0;
#X connect 40 9 33 0;
#X connect 40 10 34 0;
#X connect 40 11 35 0;
#X connect 40 12 36 0;
#X connect 40 13 37 0;
#X connect 40 14 38 0;
#X connect 40 15 39 0;
#X connect 41 0 43 1;
#X connect 42 0 43 1;
#X connect 43 0 1 0;
#X connect 44 0 5 0;
#X connect 45 0 43 0;
#X connect 46 0 3 0;
#X connect 46 1 4 0;
#X connect 46 2 44 0;
#X connect 46 3 44 1;
#X coords 0 -1 1 1 310 180 1 150 205;
