#N canvas 183 169 655 443 10;
#X obj 273 329 np_virtualhole;
#X msg 216 210 open;
#X obj 247 238 bng 15 250 50 0 empty empty empty 17 7 0 10 -262144
-1 -1;
#X msg 184 238 close;
#X obj 362 162 bondo 9;
#X obj 311 212 pack 0 0 0 0 0 0 0 0 0;
#X floatatom 207 88 5 0 0 0 - - -;
#X floatatom 244 88 5 0 0 0 - - -;
#X floatatom 286 93 5 0 0 0 - - -;
#X floatatom 330 94 5 0 0 0 - - -;
#X floatatom 369 99 5 0 0 0 - - -;
#X floatatom 405 101 5 0 0 0 - - -;
#X floatatom 445 101 5 0 0 0 - - -;
#X floatatom 485 100 5 0 0 0 - - -;
#X floatatom 523 102 5 0 0 0 - - -;
#X obj 369 31 loadbang;
#X obj 334 242 print;
#X msg 130 262 auto_poll;
#X msg 111 300 stop_poll;
#X obj 281 270 inlet;
#X obj 365 272 inlet;
#X connect 1 0 0 0;
#X connect 2 0 0 0;
#X connect 3 0 0 0;
#X connect 4 0 5 0;
#X connect 4 1 5 1;
#X connect 4 2 5 2;
#X connect 4 3 5 3;
#X connect 4 4 5 4;
#X connect 4 5 5 5;
#X connect 4 6 5 6;
#X connect 4 7 5 7;
#X connect 4 7 5 8;
#X connect 5 0 16 0;
#X connect 5 0 0 1;
#X connect 6 0 4 0;
#X connect 7 0 4 1;
#X connect 8 0 4 2;
#X connect 9 0 4 3;
#X connect 10 0 4 4;
#X connect 11 0 4 5;
#X connect 12 0 4 6;
#X connect 13 0 4 7;
#X connect 14 0 4 8;
#X connect 15 0 14 0;
#X connect 15 0 13 0;
#X connect 15 0 12 0;
#X connect 15 0 11 0;
#X connect 15 0 10 0;
#X connect 15 0 9 0;
#X connect 15 0 8 0;
#X connect 15 0 7 0;
#X connect 15 0 6 0;
#X connect 17 0 0 0;
#X connect 18 0 0 0;
#X connect 19 0 0 0;
#X connect 20 0 0 1;
