#N canvas 258 227 791 610 10;
#X obj 192 379 outlet;
#X obj 141 -55 tv_listbuilder;
#X obj 140 -85 routeOSC /1;
#X obj 217 -83 routeOSC /1;
#X obj 293 -28 list-math int;
#X obj 275 66 vsl 15 128 0 255 0 0 empty empty empty 0 -9 0 10 -262144
-1 -1 0 1;
#X obj 294 66 vsl 15 128 0 255 0 0 empty empty empty 0 -9 0 10 -262144
-1 -1 0 1;
#X obj 313 66 vsl 15 128 0 255 0 0 empty empty empty 0 -9 0 10 -262144
-1 -1 0 1;
#X obj 332 66 vsl 15 128 0 255 0 0 empty empty empty 0 -9 0 10 -262144
-1 -1 0 1;
#X obj 350 66 vsl 15 128 0 255 0 0 empty empty empty 0 -9 0 10 -262144
-1 -1 0 1;
#X obj 369 66 vsl 15 128 0 255 0 0 empty empty empty 0 -9 0 10 -262144
-1 -1 0 1;
#X obj 388 66 vsl 15 128 0 255 0 0 empty empty empty 0 -9 0 10 -262144
-1 -1 0 1;
#X obj 407 66 vsl 15 128 0 255 0 0 empty empty empty 0 -9 0 10 -262144
-1 -1 1145 1;
#X obj 427 66 vsl 15 128 0 255 0 0 empty empty empty 0 -9 0 10 -262144
-1 -1 797 1;
#X obj 446 66 vsl 15 128 0 255 0 0 empty empty empty 0 -9 0 10 -262144
-1 -1 896 1;
#X obj 465 66 vsl 15 128 0 255 0 0 empty empty empty 0 -9 0 10 -262144
-1 -1 1145 1;
#X obj 484 66 vsl 15 128 0 255 0 0 empty empty empty 0 -9 0 10 -262144
-1 -1 1145 1;
#X obj 502 66 vsl 15 128 0 255 0 0 empty empty empty 0 -9 0 10 -262144
-1 -1 0 1;
#X obj 521 66 vsl 15 128 0 255 0 0 empty empty empty 0 -9 0 10 -262144
-1 -1 0 1;
#X obj 540 66 vsl 15 128 0 255 0 0 empty empty empty 0 -9 0 10 -262144
-1 -1 0 1;
#X obj 256 66 vsl 15 128 0 255 0 0 empty empty empty 0 -9 0 10 -262144
-1 -1 0 1;
#X obj 257 4 unpack 0 0 0 0 0 0 0 0 0 0 0 0 0 0 0 0;
#X obj 256 200 tgl 15 0 empty empty empty 17 7 0 10 -262144 -1 -1 0
1;
#X obj 275 200 tgl 15 0 empty empty empty 17 7 0 10 -262144 -1 -1 0
1;
#X obj 294 200 tgl 15 0 empty empty empty 17 7 0 10 -262144 -1 -1 0
1;
#X obj 313 200 tgl 15 0 empty empty empty 17 7 0 10 -262144 -1 -1 0
1;
#X obj 331 200 tgl 15 0 empty empty empty 17 7 0 10 -262144 -1 -1 0
1;
#X obj 350 200 tgl 15 0 empty empty empty 17 7 0 10 -262144 -1 -1 0
1;
#X obj 369 200 tgl 15 0 empty empty empty 17 7 0 10 -262144 -1 -1 0
1;
#X obj 388 200 tgl 15 0 empty empty empty 17 7 0 10 -262144 -1 -1 0
1;
#X obj 407 200 tgl 15 0 empty empty empty 17 7 0 10 -262144 -1 -1 1
1;
#X obj 426 200 tgl 15 0 empty empty empty 17 7 0 10 -262144 -1 -1 1
1;
#X obj 445 200 tgl 15 0 empty empty empty 17 7 0 10 -262144 -1 -1 1
1;
#X obj 464 200 tgl 15 0 empty empty empty 17 7 0 10 -262144 -1 -1 1
1;
#X obj 483 200 tgl 15 0 empty empty empty 17 7 0 10 -262144 -1 -1 1
1;
#X obj 502 200 tgl 15 0 empty empty empty 17 7 0 10 -262144 -1 -1 0
1;
#X obj 521 200 tgl 15 0 empty empty empty 17 7 0 10 -262144 -1 -1 0
1;
#X obj 540 200 tgl 15 0 empty empty empty 17 7 0 10 -262144 -1 -1 0
1;
#X obj 188 223 unpack 0 0 0 0 0 0 0 0 0 0 0 0 0 0 0 0;
#X obj 160 278 list-mult;
#X obj 226 277 list-mult;
#X obj 180 315 list-seek;
#X obj 293 -81 tv_listbuilder;
#X obj 336 270 inlet;
#X obj 63 -164 inlet;
#X obj 63 -138 routeOSC /mt1 /mt2 /mf1 /mf2;
#X obj 293 -54 list-math * 64;
#X connect 1 0 38 0;
#X connect 1 0 39 0;
#X connect 1 0 40 1;
#X connect 2 0 1 0;
#X connect 3 0 1 1;
#X connect 4 0 21 0;
#X connect 4 0 39 1;
#X connect 4 0 40 0;
#X connect 21 0 20 0;
#X connect 21 1 5 0;
#X connect 21 2 6 0;
#X connect 21 3 7 0;
#X connect 21 4 8 0;
#X connect 21 5 9 0;
#X connect 21 6 10 0;
#X connect 21 7 11 0;
#X connect 21 8 12 0;
#X connect 21 9 13 0;
#X connect 21 10 14 0;
#X connect 21 11 15 0;
#X connect 21 12 16 0;
#X connect 21 13 17 0;
#X connect 21 14 18 0;
#X connect 21 15 19 0;
#X connect 38 0 22 0;
#X connect 38 1 23 0;
#X connect 38 2 24 0;
#X connect 38 3 25 0;
#X connect 38 4 26 0;
#X connect 38 5 27 0;
#X connect 38 6 28 0;
#X connect 38 7 29 0;
#X connect 38 8 30 0;
#X connect 38 9 31 0;
#X connect 38 10 32 0;
#X connect 38 11 33 0;
#X connect 38 12 34 0;
#X connect 38 13 35 0;
#X connect 38 14 36 0;
#X connect 38 15 37 0;
#X connect 39 0 41 1;
#X connect 40 0 41 1;
#X connect 41 0 0 0;
#X connect 42 0 46 0;
#X connect 43 0 41 0;
#X connect 44 0 45 0;
#X connect 45 0 2 0;
#X connect 45 1 3 0;
#X connect 45 2 42 0;
#X connect 45 3 42 1;
#X connect 46 0 4 0;
