#N canvas 524 195 804 571 10;
#X obj 280 540 np_virtualhole;
#X msg 223 421 open;
#X obj 254 449 bng 15 250 50 0 empty empty empty 17 7 0 10 -262144
-1 -1;
#X msg 191 449 close;
#X obj 369 373 bondo 9;
#X obj 318 423 pack 0 0 0 0 0 0 0 0 0;
#X floatatom 214 299 5 0 0 0 - - -;
#X floatatom 251 299 5 0 0 0 - - -;
#X floatatom 293 304 5 0 0 0 - - -;
#X floatatom 337 305 5 0 0 0 - - -;
#X floatatom 376 310 5 0 0 0 - - -;
#X floatatom 412 312 5 0 0 0 - - -;
#X floatatom 452 312 5 0 0 0 - - -;
#X floatatom 492 311 5 0 0 0 - - -;
#X floatatom 530 313 5 0 0 0 - - -;
#X obj 376 242 loadbang;
#X obj 341 453 print;
#X msg 137 473 auto_poll;
#X msg 118 511 stop_poll;
#N canvas 261 66 450 300 osc_control 1;
#X obj 97 48 unpackOSC;
#X obj 97 75 pipelist;
#X obj 34 266 outlet;
#X obj 158 275 outlet;
#X obj -2 74 print unpacked;
#X obj 98 12 udpreceive 9001;
#X obj 96 101 routeOSC /vh /tv;
#N canvas 0 22 684 253 vh_pack 1;
#X obj 78 22 routeOSC /f0 /f1 /f2 /f3 /f4 /f5;
#X obj 186 148 bondo 6;
#X obj 151 177 pack 0 0 0 0 0 0 0 0 0;
#X obj 78 -5 inlet;
#X obj 150 213 outlet;
#X obj -21 94 vh_osc_convert;
#X obj 85 94 vh_osc_convert;
#X obj 272 95 vh_osc_convert;
#X obj 177 94 vh_osc_convert;
#X obj 365 95 vh_osc_convert;
#X obj 462 95 vh_osc_convert;
#X connect 0 0 5 0;
#X connect 0 1 6 0;
#X connect 0 2 8 0;
#X connect 0 3 7 0;
#X connect 0 4 9 0;
#X connect 0 5 10 0;
#X connect 1 0 2 0;
#X connect 1 1 2 1;
#X connect 1 4 2 6;
#X connect 1 5 2 7;
#X connect 2 0 4 0;
#X connect 3 0 0 0;
#X connect 5 0 1 0;
#X connect 6 0 1 1;
#X connect 7 0 1 3;
#X connect 8 0 1 2;
#X connect 9 0 1 4;
#X connect 10 0 1 5;
#X restore 52 171 pd vh_pack;
#X connect 0 0 1 0;
#X connect 0 0 4 0;
#X connect 0 1 1 1;
#X connect 1 0 6 0;
#X connect 5 0 0 0;
#X connect 6 0 7 0;
#X restore 168 59 pd osc_control;
#X connect 1 0 0 0;
#X connect 2 0 0 0;
#X connect 3 0 0 0;
#X connect 4 0 5 0;
#X connect 4 1 5 1;
#X connect 4 2 5 2;
#X connect 4 3 5 3;
#X connect 4 4 5 4;
#X connect 4 5 5 5;
#X connect 4 6 5 6;
#X connect 4 7 5 7;
#X connect 4 7 5 8;
#X connect 5 0 16 0;
#X connect 5 0 0 1;
#X connect 6 0 4 0;
#X connect 7 0 4 1;
#X connect 8 0 4 2;
#X connect 9 0 4 3;
#X connect 10 0 4 4;
#X connect 11 0 4 5;
#X connect 12 0 4 6;
#X connect 13 0 4 7;
#X connect 14 0 4 8;
#X connect 15 0 14 0;
#X connect 15 0 13 0;
#X connect 15 0 12 0;
#X connect 15 0 11 0;
#X connect 15 0 10 0;
#X connect 15 0 9 0;
#X connect 15 0 8 0;
#X connect 15 0 7 0;
#X connect 15 0 6 0;
#X connect 17 0 0 0;
#X connect 18 0 0 0;
